<svg xmlns="http://www.w3.org/2000/svg" width="1920" height="1080"><path d="M726,1515L-508,1588L1336,1660Z" fill="#4cb57f" stroke="#4cb57f" stroke-width="1.51"/><path d="M836,-561L1165,-508L2075,-578Z" fill="#57a279" stroke="#57a279" stroke-width="1.51"/><path d="M2075,-578L2195,-333L2325,-172Z" fill="#65c090" stroke="#65c090" stroke-width="1.51"/><path d="M2191,1330L2182,1611L2421,756Z" fill="#50cf90" stroke="#50cf90" stroke-width="1.51"/><path d="M2301,523L1863,900L2421,756Z" fill="#3db277" stroke="#3db277" stroke-width="1.51"/><path d="M1863,900L2191,1330L2421,756Z" fill="#45be81" stroke="#45be81" stroke-width="1.51"/><path d="M2325,-172L2250,229L2421,756Z" fill="#49b47d" stroke="#49b47d" stroke-width="1.51"/><path d="M2250,229L2301,523L2421,756Z" fill="#3cae74" stroke="#3cae74" stroke-width="1.51"/><path d="M1165,-508L1678,-412L2075,-578Z" fill="#5cac81" stroke="#5cac81" stroke-width="1.51"/><path d="M1947,1462L1336,1660L2182,1611Z" fill="#50d090" stroke="#50d090" stroke-width="1.51"/><path d="M1863,900L1867,1204L2191,1330Z" fill="#45bf81" stroke="#45bf81" stroke-width="1.51"/><path d="M2250,229L1869,557L2301,523Z" fill="#3ba870" stroke="#3ba870" stroke-width="1.51"/><path d="M1869,557L1863,900L2301,523Z" fill="#36a76d" stroke="#36a76d" stroke-width="1.51"/><path d="M2195,-333L1831,-95L2325,-172Z" fill="#5bb887" stroke="#5bb887" stroke-width="1.51"/><path d="M1831,-95L1909,127L2325,-172Z" fill="#51b07d" stroke="#51b07d" stroke-width="1.51"/><path d="M1909,127L2250,229L2325,-172Z" fill="#4fb37f" stroke="#4fb37f" stroke-width="1.51"/><path d="M1497,1508L1336,1660L1947,1462Z" fill="#49c486" stroke="#49c486" stroke-width="1.51"/><path d="M1947,1462L2182,1611L2191,1330Z" fill="#55d695" stroke="#55d695" stroke-width="1.51"/><path d="M1909,127L1869,557L2250,229Z" fill="#3fa770" stroke="#3fa770" stroke-width="1.51"/><path d="M2075,-578L1678,-412L2195,-333Z" fill="#63b98c" stroke="#63b98c" stroke-width="1.51"/><path d="M1678,-412L1831,-95L2195,-333Z" fill="#59b183" stroke="#59b183" stroke-width="1.51"/><path d="M1867,1204L1947,1462L2191,1330Z" fill="#4cca8b" stroke="#4cca8b" stroke-width="1.51"/><path d="M-133,1470L-508,1588L726,1515Z" fill="#5dbc8a" stroke="#5dbc8a" stroke-width="1.51"/><path d="M1559,607L1863,900L1869,557Z" fill="#2f9e66" stroke="#2f9e66" stroke-width="1.51"/><path d="M1507,269L1869,557L1909,127Z" fill="#379c67" stroke="#379c67" stroke-width="1.51"/><path d="M1867,1204L1497,1508L1947,1462Z" fill="#48c485" stroke="#48c485" stroke-width="1.51"/><path d="M1678,-412L1559,-245L1831,-95Z" fill="#52a87a" stroke="#52a87a" stroke-width="1.51"/><path d="M1863,900L1545,956L1867,1204Z" fill="#3baf74" stroke="#3baf74" stroke-width="1.51"/><path d="M1545,956L1516,1106L1867,1204Z" fill="#3aae73" stroke="#3aae73" stroke-width="1.51"/><path d="M1507,269L1559,607L1869,557Z" fill="#2b935e" stroke="#2b935e" stroke-width="1.51"/><path d="M1831,-95L1507,269L1909,127Z" fill="#43a16f" stroke="#43a16f" stroke-width="1.51"/><path d="M1398,69L1507,269L1831,-95Z" fill="#409b6a" stroke="#409b6a" stroke-width="1.51"/><path d="M1559,607L1545,956L1863,900Z" fill="#32a068" stroke="#32a068" stroke-width="1.51"/><path d="M1516,1106L1497,1508L1867,1204Z" fill="#41b77b" stroke="#41b77b" stroke-width="1.51"/><path d="M1559,-245L1398,69L1831,-95Z" fill="#48a071" stroke="#48a071" stroke-width="1.51"/><path d="M1411,-187L1398,69L1559,-245Z" fill="#469b6d" stroke="#469b6d" stroke-width="1.51"/><path d="M1165,-508L1559,-245L1678,-412Z" fill="#53a377" stroke="#53a377" stroke-width="1.51"/><path d="M302,1425L-133,1470L726,1515Z" fill="#51b480" stroke="#51b480" stroke-width="1.51"/><path d="M-106,-464L597,-470L836,-561Z" fill="#5c9b78" stroke="#5c9b78" stroke-width="1.51"/><path d="M1167,1153L1497,1508L1516,1106Z" fill="#3aad72" stroke="#3aad72" stroke-width="1.51"/><path d="M1165,-508L1411,-187L1559,-245Z" fill="#4d9d71" stroke="#4d9d71" stroke-width="1.51"/><path d="M1507,269L1178,637L1559,607Z" fill="#238a55" stroke="#238a55" stroke-width="1.51"/><path d="M1307,884L1545,956L1559,607Z" fill="#2c9961" stroke="#2c9961" stroke-width="1.51"/><path d="M1178,637L1307,884L1559,607Z" fill="#258e58" stroke="#258e58" stroke-width="1.51"/><path d="M1307,884L1516,1106L1545,956Z" fill="#32a168" stroke="#32a168" stroke-width="1.51"/><path d="M-106,-464L338,-422L597,-470Z" fill="#5f9d7b" stroke="#5f9d7b" stroke-width="1.51"/><path d="M1167,1153L1336,1660L1497,1508Z" fill="#3fb478" stroke="#3fb478" stroke-width="1.51"/><path d="M1031,215L1178,637L1507,269Z" fill="#268654" stroke="#268654" stroke-width="1.51"/><path d="M1307,884L1167,1153L1516,1106Z" fill="#319f67" stroke="#319f67" stroke-width="1.51"/><path d="M1398,69L1031,215L1507,269Z" fill="#338e5d" stroke="#338e5d" stroke-width="1.51"/><path d="M950,1455L726,1515L1336,1660Z" fill="#39ac72" stroke="#39ac72" stroke-width="1.51"/><path d="M1167,1153L950,1455L1336,1660Z" fill="#39ac71" stroke="#39ac71" stroke-width="1.51"/><path d="M972,-189L1398,69L1411,-187Z" fill="#419366" stroke="#419366" stroke-width="1.51"/><path d="M1165,-508L972,-189L1411,-187Z" fill="#48956a" stroke="#48956a" stroke-width="1.51"/><path d="M972,-189L1031,215L1398,69Z" fill="#378a5c" stroke="#378a5c" stroke-width="1.51"/><path d="M1031,215L915,449L1178,637Z" fill="#1d7d4b" stroke="#1d7d4b" stroke-width="1.51"/><path d="M1178,637L908,983L1307,884Z" fill="#238c57" stroke="#238c57" stroke-width="1.51"/><path d="M908,983L1167,1153L1307,884Z" fill="#29955e" stroke="#29955e" stroke-width="1.51"/><path d="M836,-561L972,-189L1165,-508Z" fill="#489068" stroke="#489068" stroke-width="1.51"/><path d="M895,1199L950,1455L1167,1153Z" fill="#2f9d65" stroke="#2f9d65" stroke-width="1.51"/><path d="M915,449L908,983L1178,637Z" fill="#1a804c" stroke="#1a804c" stroke-width="1.51"/><path d="M908,983L895,1199L1167,1153Z" fill="#29955e" stroke="#29955e" stroke-width="1.51"/><path d="M493,814L908,983L915,449Z" fill="#258552" stroke="#258552" stroke-width="1.51"/><path d="M601,435L493,814L915,449Z" fill="#237e4e" stroke="#237e4e" stroke-width="1.51"/><path d="M601,435L915,449L1031,215Z" fill="#257d4e" stroke="#257d4e" stroke-width="1.51"/><path d="M492,236L601,435L1031,215Z" fill="#2f8254" stroke="#2f8254" stroke-width="1.51"/><path d="M972,-189L540,-177L1031,215Z" fill="#3a885d" stroke="#3a885d" stroke-width="1.51"/><path d="M540,-177L492,236L1031,215Z" fill="#3a885c" stroke="#3a885c" stroke-width="1.51"/><path d="M895,1199L726,1515L950,1455Z" fill="#37a46d" stroke="#37a46d" stroke-width="1.51"/><path d="M836,-561L597,-470L972,-189Z" fill="#4c926b" stroke="#4c926b" stroke-width="1.51"/><path d="M597,-470L540,-177L972,-189Z" fill="#4a9069" stroke="#4a9069" stroke-width="1.51"/><path d="M704,1106L895,1199L908,983Z" fill="#2e9660" stroke="#2e9660" stroke-width="1.51"/><path d="M704,1106L726,1515L895,1199Z" fill="#37a069" stroke="#37a069" stroke-width="1.51"/><path d="M493,814L704,1106L908,983Z" fill="#30915e" stroke="#30915e" stroke-width="1.51"/><path d="M407,-142L492,236L540,-177Z" fill="#478e66" stroke="#478e66" stroke-width="1.51"/><path d="M239,1317L302,1425L704,1106Z" fill="#46a874" stroke="#46a874" stroke-width="1.51"/><path d="M704,1106L302,1425L726,1515Z" fill="#42a873" stroke="#42a873" stroke-width="1.51"/><path d="M350,893L239,1317L704,1106Z" fill="#3f9e6c" stroke="#3f9e6c" stroke-width="1.51"/><path d="M493,814L350,893L704,1106Z" fill="#369362" stroke="#369362" stroke-width="1.51"/><path d="M407,-142L263,144L492,236Z" fill="#458d64" stroke="#458d64" stroke-width="1.51"/><path d="M338,-422L540,-177L597,-470Z" fill="#559672" stroke="#559672" stroke-width="1.51"/><path d="M301,495L493,814L601,435Z" fill="#2d8354" stroke="#2d8354" stroke-width="1.51"/><path d="M492,236L301,495L601,435Z" fill="#348458" stroke="#348458" stroke-width="1.51"/><path d="M338,-422L407,-142L540,-177Z" fill="#52956f" stroke="#52956f" stroke-width="1.51"/><path d="M263,144L301,495L492,236Z" fill="#3d895e" stroke="#3d895e" stroke-width="1.51"/><path d="M301,495L350,893L493,814Z" fill="#368c5d" stroke="#368c5d" stroke-width="1.51"/><path d="M263,144L77,293L301,495Z" fill="#418b61" stroke="#418b61" stroke-width="1.51"/><path d="M83,983L239,1317L350,893Z" fill="#47a070" stroke="#47a070" stroke-width="1.51"/><path d="M301,495L62,592L350,893Z" fill="#398b5e" stroke="#398b5e" stroke-width="1.51"/><path d="M338,-422L-35,-23L407,-142Z" fill="#569773" stroke="#569773" stroke-width="1.51"/><path d="M-35,-23L263,144L407,-142Z" fill="#4f936d" stroke="#4f936d" stroke-width="1.51"/><path d="M83,983L22,1214L239,1317Z" fill="#4ea878" stroke="#4ea878" stroke-width="1.51"/><path d="M-106,-464L-35,-23L338,-422Z" fill="#609d7b" stroke="#609d7b" stroke-width="1.51"/><path d="M62,592L83,983L350,893Z" fill="#409567" stroke="#409567" stroke-width="1.51"/><path d="M77,293L62,592L301,495Z" fill="#3c895e" stroke="#3c895e" stroke-width="1.51"/><path d="M239,1317L-133,1470L302,1425Z" fill="#55b481" stroke="#55b481" stroke-width="1.51"/><path d="M-35,-23L77,293L263,144Z" fill="#4c916a" stroke="#4c916a" stroke-width="1.51"/><path d="M22,1214L-133,1470L239,1317Z" fill="#56b281" stroke="#56b281" stroke-width="1.51"/><path d="M-106,-464L-343,-347L-35,-23Z" fill="#67a181" stroke="#67a181" stroke-width="1.51"/><path d="M-267,171L-441,656L62,592Z" fill="#488f68" stroke="#488f68" stroke-width="1.51"/><path d="M-267,171L62,592L77,293Z" fill="#488f67" stroke="#488f67" stroke-width="1.51"/><path d="M-35,-23L-267,171L77,293Z" fill="#52956f" stroke="#52956f" stroke-width="1.51"/><path d="M-430,1209L22,1214L83,983Z" fill="#55ab7c" stroke="#55ab7c" stroke-width="1.51"/><path d="M-417,752L-430,1209L83,983Z" fill="#56a57a" stroke="#56a57a" stroke-width="1.51"/><path d="M62,592L-417,752L83,983Z" fill="#49986c" stroke="#49986c" stroke-width="1.51"/><path d="M-441,656L-417,752L62,592Z" fill="#4b966c" stroke="#4b966c" stroke-width="1.51"/><path d="M-430,1209L-133,1470L22,1214Z" fill="#5db586" stroke="#5db586" stroke-width="1.51"/><path d="M-507,-78L-267,171L-35,-23Z" fill="#5e9c79" stroke="#5e9c79" stroke-width="1.51"/><path d="M-343,-347L-507,-78L-35,-23Z" fill="#65a180" stroke="#65a180" stroke-width="1.51"/><path d="M-430,1209L-508,1588L-133,1470Z" fill="#67bf91" stroke="#67bf91" stroke-width="1.51"/><path d="M-507,-78L-441,656L-267,171Z" fill="#589975" stroke="#589975" stroke-width="1.51"/><path d="M-441,656L-508,1588L-430,1209Z" fill="#61b388" stroke="#61b388" stroke-width="1.51"/><path d="M-441,656L-430,1209L-417,752Z" fill="#58a37a" stroke="#58a37a" stroke-width="1.51"/><path d="M-507,-78L-508,1588L-441,656Z" fill="#559d74" stroke="#559d74" stroke-width="1.51"/></svg>